<svg width="400" height="533" viewBox="0 0 400 533" fill="none" xmlns="http://www.w3.org/2000/svg">
  <!-- Background -->
  <rect width="400" height="533" fill="#F5F0E8"/>
  
  <!-- Wooden bookshelf background -->
  <rect x="0" y="300" width="400" height="233" fill="#8B4513" opacity="0.1"/>
  <rect x="50" y="320" width="300" height="180" fill="#8B4513" opacity="0.2"/>
  <rect x="75" y="340" width="250" height="140" fill="#8B4513" opacity="0.3"/>
  
  <!-- Books on shelf -->
  <rect x="80" y="360" width="40" height="100" fill="#D4CFC4" stroke="#A89B8C" strokeWidth="1"/>
  <rect x="130" y="370" width="35" height="90" fill="#D4CFC4" stroke="#A89B8C" strokeWidth="1"/>
  <rect x="175" y="350" width="45" height="110" fill="#D4CFC4" stroke="#A89B8C" strokeWidth="1"/>
  <rect x="230" y="365" width="40" height="95" fill="#D4CFC4" stroke="#A89B8C" strokeWidth="1"/>
  <rect x="280" y="355" width="35" height="105" fill="#D4CFC4" stroke="#A89B8C" strokeWidth="1"/>
  
  <!-- Typewriter -->
  <rect x="250" y="420" width="80" height="60" fill="#2C241B" rx="3"/>
  <rect x="260" y="430" width="60" height="40" fill="#F5F0E8" rx="2"/>
  <circle cx="290" cy="450" r="2" fill="#8B4513"/>
  
  <!-- Wall decorations -->
  <circle cx="50" cy="80" r="15" fill="#E5E0DB" opacity="0.3"/>
  <circle cx="350" cy="100" r="20" fill="#C9A66B" opacity="0.2"/>
  <rect x="320" y="60" width="30" height="40" fill="#8B4513" opacity="0.2" rx="2"/>
  
  <!-- Table -->
  <ellipse cx="200" cy="280" rx="60" ry="8" fill="#D4CFC4"/>
  <rect x="140" y="288" width="120" height="4" fill="#A89B8C"/>
  
  <!-- Coffee cup and saucer -->
  <ellipse cx="200" cy="270" rx="15" ry="3" fill="#FFFFFF"/>
  <ellipse cx="200" cy="275" rx="20" ry="4" fill="#FFFFFF" opacity="0.8"/>
  <path d="M185 265 Q200 260 215 265" fill="#6B5D4D"/>
  <path d="M185 265 Q200 260 215 265" fill="none" stroke="#4A3F32" strokeWidth="2"/>
  
  <!-- Book in hand -->
  <g transform="translate(120, 180)">
    <!-- Book cover -->
    <rect x="0" y="0" width="60" height="80" fill="#8B4513" rx="2"/>
    <rect x="5" y="5" width="50" height="70" fill="#D4CFC4" rx="1"/>
    <!-- Book spine -->
    <rect x="0" y="0" width="8" height="80" fill="#6B5D4D"/>
    <!-- Book lines -->
    <line x1="10" y1="15" x2="50" y2="15" stroke="#A89B8C" strokeWidth="1"/>
    <line x1="10" y1="25" x2="50" y2="25" stroke="#A89B8C" strokeWidth="1"/>
    <line x1="10" y1="35" x2="50" y2="35" stroke="#A89B8C" strokeWidth="1"/>
    <line x1="10" y1="45" x2="50" y2="45" stroke="#A89B8C" strokeWidth="1"/>
    <line x1="10" y1="55" x2="50" y2="55" stroke="#A89B8C" strokeWidth="1"/>
  </g>
  
  <!-- Person silhouette -->
  <g transform="translate(200, 120)">
    <!-- Head -->
    <circle cx="0" cy="0" r="25" fill="#2C241B"/>
    <!-- Hair -->
    <path d="M-25 -10 Q-25 -25 -15 -30 Q-5 -35 0 -30 Q5 -25 25 -10 Q25 -5 25 5 Q15 0 0 -10" fill="#1A1612"/>
    <!-- Face -->
    <circle cx="-8" cy="-5" r="2" fill="#E5E0DB"/>
    <circle cx="8" cy="-5" r="2" fill="#E5E0DB"/>
    <!-- Mustache -->
    <path d="M-15 5 Q-10 8 -5 8 Q0 8 5 8 Q10 8 15 5 Q10 2 15 0 Q10 -2 5 0 Q0 -2 -5 0 Q-10 2 -15 0 Q-10 2 -15 5" fill="#1A1612"/>
    <!-- Body -->
    <rect x="-30" y="25" width="60" height="80" fill="#4A7C59" rx="5"/>
    <!-- Shirt -->
    <rect x="-30" y="25" width="60" height="40" fill="#5A8A5A" rx="5"/>
    <!-- Arms -->
    <rect x="-40" y="30" width="15" height="50" fill="#4A7C59" rx="5" transform="rotate(-20 -32.5 55)"/>
    <rect x="25" y="30" width="15" height="50" fill="#4A7C59" rx="5" transform="rotate(20 32.5 55)"/>
    <!-- Hand holding book -->
    <rect x="10" y="60" width="40" height="50" fill="#F5E6D9" rx="3" transform="rotate(10 30 85)"/>
  </g>
  
  <!-- Decorative elements -->
  <circle cx="30" cy="200" r="3" fill="#C9A66B" opacity="0.4"/>
  <circle cx="370" cy="150" r="4" fill="#8B4513" opacity="0.3"/>
  <rect x="360" y="200" width="25" height="3" fill="#C9A66B" opacity="0.2" rx="1"/>
</svg>
